<svg width="32" height="21" viewBox="0 0 32 21" fill="none" xmlns="http://www.w3.org/2000/svg">
<path d="M1.77778 21C1.27408 21 0.852154 20.832 0.512006 20.496C0.171858 20.16 0.00119132 19.7446 6.13026e-06 19.25C-0.00117905 18.7553 0.169488 18.34 0.512006 18.004C0.854524 17.668 1.27645 17.5 1.77778 17.5H30.2222C30.7259 17.5 31.1484 17.668 31.4898 18.004C31.8311 18.34 32.0012 18.7553 32 19.25C31.9988 19.7446 31.8281 20.1606 31.488 20.4977C31.1478 20.8349 30.7259 21.0023 30.2222 21H1.77778ZM1.77778 12.25C1.27408 12.25 0.852154 12.082 0.512006 11.746C0.171858 11.41 0.00119132 10.9947 6.13026e-06 10.5C-0.00117905 10.0053 0.169488 9.58999 0.512006 9.25399C0.854524 8.91799 1.27645 8.74999 1.77778 8.74999H30.2222C30.7259 8.74999 31.1484 8.91799 31.4898 9.25399C31.8311 9.58999 32.0012 10.0053 32 10.5C31.9988 10.9947 31.8281 11.4106 31.488 11.7477C31.1478 12.0849 30.7259 12.2523 30.2222 12.25H1.77778ZM1.77778 3.5C1.27408 3.5 0.852154 3.332 0.512006 2.996C0.171858 2.66 0.00119132 2.24466 6.13026e-06 1.75C-0.00117905 1.25533 0.169488 0.839999 0.512006 0.504C0.854524 0.168 1.27645 0 1.77778 0H30.2222C30.7259 0 31.1484 0.168 31.4898 0.504C31.8311 0.839999 32.0012 1.25533 32 1.75C31.9988 2.24466 31.8281 2.66058 31.488 2.99775C31.1478 3.33491 30.7259 3.50233 30.2222 3.5H1.77778Z" fill="white"/>
</svg>
